<?xml version="1.0" standalone="no"?>
<!DOCTYPE svg PUBLIC "-//W3C//DTD SVG 20010904//EN"
 "http://www.w3.org/TR/2001/REC-SVG-20010904/DTD/svg10.dtd">
<svg version="1.0" xmlns="http://www.w3.org/2000/svg"
 width="3000.000000pt" height="3000.000000pt" viewBox="0 0 3000.000000 3000.000000"
 preserveAspectRatio="xMidYMid meet">
<metadata>
Created by potrace 1.13, written by Peter Selinger 2001-2015
</metadata>
<g transform="translate(0.000000,3000.000000) scale(0.100000,-0.100000)"
fill="#000000" stroke="none">
<path d="M24425 28480 c-27 -5 -192 -14 -365 -20 -366 -12 -523 -32 -650 -81
-103 -40 -364 -178 -445 -236 -214 -153 -274 -207 -377 -336 -209 -261 -344
-477 -393 -627 -10 -30 -47 -125 -83 -210 -130 -313 -230 -599 -392 -1120 -27
-87 -64 -178 -105 -255 -85 -162 -171 -411 -179 -523 -7 -92 3 -108 48 -79 15
10 36 14 57 11 59 -9 82 17 174 200 84 165 169 296 192 296 6 0 35 29 63 65
60 75 82 91 99 71 9 -10 8 -21 -1 -41 -11 -24 -10 -29 8 -44 18 -15 19 -19 7
-61 -18 -58 -9 -106 27 -142 23 -22 37 -28 73 -28 61 0 98 32 127 110 23 62
40 70 40 18 0 -39 51 -190 89 -267 17 -32 48 -80 71 -105 22 -26 45 -57 51
-69 22 -42 52 -67 81 -67 22 0 29 5 33 28 4 15 11 46 17 70 23 90 14 167 -36
314 -25 76 -53 181 -61 234 l-16 97 28 23 28 22 -3 120 c-5 197 38 405 138
652 35 88 210 320 322 426 214 204 498 380 771 478 232 84 246 86 629 86 l338
0 97 -31 c114 -37 162 -60 338 -164 149 -88 176 -108 303 -225 224 -204 312
-347 412 -671 55 -178 70 -271 76 -454 6 -155 5 -164 -25 -277 -16 -64 -50
-165 -74 -226 -37 -92 -56 -123 -120 -199 -122 -145 -248 -257 -367 -327 -192
-112 -330 -175 -452 -204 -105 -24 -130 -26 -343 -27 -141 0 -267 5 -325 13
-178 26 -213 26 -282 3 -109 -36 -148 -97 -148 -228 0 -71 26 -142 69 -188 16
-16 31 -42 35 -57 3 -15 14 -34 23 -43 12 -12 16 -31 14 -66 -2 -44 2 -53 29
-81 l31 -31 77 8 c42 5 88 8 102 8 300 -9 385 -15 530 -37 227 -35 343 -65
517 -134 81 -33 169 -67 195 -76 105 -38 221 -146 353 -326 165 -224 244 -546
233 -945 -4 -143 -6 -155 -42 -260 -44 -128 -90 -214 -157 -298 -80 -99 -279
-306 -323 -336 -22 -15 -108 -59 -191 -98 -142 -68 -161 -74 -355 -115 l-205
-43 -330 0 -330 0 -115 32 c-258 73 -540 178 -667 249 -33 18 -113 82 -177
141 -218 200 -346 427 -439 778 -13 50 -15 539 -3 730 12 188 2 238 -59 293
-36 33 -45 47 -45 74 0 19 -5 39 -12 46 -16 16 -48 -3 -48 -29 0 -11 -10 -24
-24 -30 -29 -14 -46 -48 -46 -94 0 -36 -15 -46 -37 -24 -18 18 -43 3 -43 -24
0 -14 -7 -42 -16 -63 -14 -31 -18 -88 -22 -284 -4 -193 -8 -247 -18 -253 -8
-4 -14 -17 -14 -27 0 -17 -2 -17 -25 5 -13 14 -35 25 -49 25 -34 0 -56 35 -56
88 0 52 -24 108 -56 129 -14 9 -24 27 -26 46 -2 27 -7 32 -28 32 -25 0 -25 -1
-29 -95 -2 -52 -5 -224 -5 -383 -1 -281 -1 -287 -21 -287 -11 0 -30 -7 -42
-15 -18 -13 -22 -12 -39 7 -42 47 -109 53 -140 13 -9 -12 -17 -10 -51 15 -21
16 -45 41 -51 55 -13 28 -49 34 -58 10 -3 -8 5 -38 18 -67 l24 -53 -28 -23
c-19 -16 -28 -33 -28 -52 0 -49 125 -216 251 -335 39 -36 103 -110 144 -163
40 -53 121 -144 179 -201 59 -57 133 -138 165 -180 180 -235 480 -461 952
-713 183 -99 365 -183 459 -213 30 -10 67 -24 82 -32 74 -37 497 -73 861 -73
202 0 255 3 340 21 118 24 286 76 401 126 45 19 131 52 191 75 132 49 163 64
280 135 130 80 148 93 275 195 129 105 343 316 461 457 117 139 221 355 298
614 45 152 53 209 72 465 11 152 10 193 -5 350 -10 97 -25 204 -33 237 -8 33
-22 92 -30 130 -32 154 -119 360 -203 486 -222 330 -386 509 -587 641 l-51 34
64 54 c162 138 466 596 564 850 40 104 88 279 102 375 8 47 12 182 12 325 0
216 -3 257 -23 345 -12 55 -28 134 -36 175 -22 125 -52 230 -116 412 -74 209
-83 226 -199 403 -114 173 -252 346 -356 446 -250 241 -307 285 -459 353 -33
15 -105 53 -160 85 -104 61 -355 164 -485 199 -102 28 -233 52 -285 52 -24 0
-74 6 -112 14 -90 18 -246 26 -308 16z"/>
<path d="M4585 26496 c-67 -16 -141 -43 -215 -81 -64 -32 -288 -201 -363 -274
-100 -96 -204 -296 -282 -542 -26 -84 -77 -324 -90 -429 -4 -30 -13 -80 -20
-110 -25 -100 -42 -356 -55 -835 -11 -385 0 -743 30 -1015 12 -102 25 -257 30
-345 9 -152 25 -322 35 -355 2 -8 9 -62 15 -120 6 -58 29 -217 51 -354 34
-219 39 -269 39 -420 0 -159 4 -229 31 -535 5 -62 12 -170 15 -240 3 -69 12
-175 20 -236 28 -213 45 -330 54 -370 5 -22 10 -67 10 -100 0 -33 7 -98 14
-145 8 -47 17 -130 21 -185 3 -55 15 -154 25 -220 25 -159 67 -549 85 -795 3
-41 12 -131 21 -200 8 -69 21 -192 29 -275 10 -99 23 -176 40 -228 15 -47 31
-133 40 -220 26 -240 37 -320 51 -367 8 -25 19 -83 25 -130 5 -47 26 -168 45
-270 51 -275 104 -618 104 -673 0 -27 16 -128 36 -225 29 -141 38 -211 43
-348 4 -94 11 -175 14 -181 7 -11 14 -77 41 -398 30 -345 53 -1430 54 -2575 1
-570 -1 -711 -13 -785 -8 -49 -15 -117 -15 -150 0 -33 -9 -103 -20 -155 -13
-65 -20 -135 -20 -220 0 -125 -18 -259 -59 -440 -11 -47 -27 -139 -36 -205 -8
-66 -24 -158 -35 -205 -37 -167 -114 -560 -155 -800 -17 -96 -56 -245 -115
-440 -83 -275 -137 -463 -191 -655 -12 -44 -51 -167 -86 -273 -35 -107 -75
-239 -88 -295 -48 -207 -56 -243 -70 -292 -11 -44 -42 -239 -74 -475 -6 -41
-22 -128 -35 -192 -46 -215 -68 -515 -73 -987 -3 -262 -1 -453 5 -500 6 -42
18 -143 27 -226 9 -82 25 -206 36 -275 22 -134 103 -446 142 -545 69 -174 138
-320 195 -415 35 -58 80 -136 99 -174 27 -54 66 -101 167 -205 72 -75 146
-155 164 -178 18 -23 56 -59 85 -79 29 -21 75 -59 102 -84 28 -25 73 -61 100
-80 28 -18 68 -50 90 -70 23 -20 77 -61 120 -90 44 -29 96 -65 115 -80 35 -27
93 -61 321 -186 152 -83 340 -148 679 -236 63 -16 148 -42 188 -58 69 -28 282
-95 442 -139 132 -36 521 -121 645 -140 66 -11 154 -24 195 -31 41 -6 100 -15
130 -20 116 -19 357 -16 520 7 85 12 234 29 330 38 180 16 341 49 483 100 104
37 301 137 382 194 39 27 100 68 137 91 111 67 375 333 463 465 53 81 152 285
206 427 76 202 85 283 71 668 -10 277 -13 318 -41 450 -40 190 -70 293 -121
415 -82 196 -82 197 -77 415 l4 195 46 133 c85 247 111 430 104 757 -4 236 -5
242 -40 375 -41 156 -60 215 -132 400 -29 74 -60 167 -69 205 -28 111 -66 232
-106 335 -53 133 -132 451 -180 724 -17 95 -20 197 -30 800 -13 770 -17 813
-86 1029 -39 122 -110 300 -154 387 -27 54 -96 127 -256 271 -67 61 -91 75
-235 132 -30 12 -38 22 -45 53 -4 22 -9 235 -9 474 -1 239 -5 586 -10 771 l-8
335 48 29 c131 76 310 274 475 525 80 121 219 403 253 511 87 281 87 280 87
448 -1 86 -5 201 -10 256 -12 137 -72 422 -110 525 -78 212 -238 462 -397 624
-107 107 -184 164 -297 217 -47 22 -86 42 -86 45 0 63 58 417 100 611 l11 52
67 22 c37 12 112 42 167 67 55 24 148 64 207 87 59 24 145 67 190 97 46 30
110 70 143 89 74 42 300 260 407 391 97 120 155 212 246 394 86 170 119 263
166 464 72 312 79 376 72 645 -9 345 -32 497 -110 745 -83 261 -177 445 -307
601 -54 63 -113 126 -133 140 -20 13 -36 27 -36 31 0 4 9 31 21 60 11 29 47
121 79 203 32 83 86 209 120 280 69 145 127 298 171 453 29 104 81 218 143
314 18 29 46 82 62 118 15 36 41 88 58 115 16 28 56 106 88 175 33 69 72 145
88 170 67 105 158 363 185 528 22 133 17 567 -9 702 -40 212 -96 385 -173 530
-31 58 -74 140 -97 184 -25 48 -80 123 -142 195 -55 64 -114 137 -132 163 -18
26 -80 91 -139 145 -58 54 -152 143 -207 198 -63 63 -149 133 -230 189 -210
144 -290 185 -420 211 -39 8 -161 44 -271 79 -110 36 -288 88 -395 116 -107
28 -260 73 -340 100 -295 98 -561 167 -755 195 -66 9 -136 23 -155 30 -74 28
-249 74 -340 89 -52 9 -135 23 -185 32 -49 8 -108 20 -130 26 -22 6 -67 14
-100 19 -33 5 -98 18 -145 28 -47 11 -134 29 -195 41 -192 36 -297 61 -420
100 -154 49 -324 86 -450 101 -55 6 -120 15 -145 20 -25 5 -178 12 -340 14
-230 4 -308 2 -355 -9z m1295 -1622 c78 -20 210 -79 277 -125 164 -112 297
-304 349 -504 25 -97 25 -313 0 -410 -67 -256 -239 -464 -478 -574 -129 -60
-201 -75 -358 -75 -157 0 -229 15 -358 75 -194 90 -332 228 -422 422 -59 128
-74 201 -74 357 0 157 15 229 75 358 120 259 343 433 624 488 88 17 276 11
365 -12z m3906 -4687 c87 -105 169 -278 234 -488 74 -240 93 -398 88 -729 -4
-242 -4 -247 -42 -410 -49 -212 -74 -288 -145 -435 -70 -146 -141 -261 -223
-363 -89 -112 -280 -295 -341 -327 -29 -15 -75 -45 -102 -65 -60 -44 -120 -76
-191 -100 -28 -10 -92 -37 -143 -60 -50 -24 -94 -41 -97 -38 -3 4 18 102 46
219 28 118 58 250 66 294 7 44 25 118 38 165 14 47 30 103 36 125 6 22 15 80
20 129 13 135 64 346 125 516 15 41 38 128 51 193 29 138 68 258 131 406 62
145 72 174 84 255 12 77 40 147 93 235 19 31 57 124 86 206 71 207 121 335
128 334 4 0 30 -28 58 -62z m-1106 -4414 c172 -115 387 -416 463 -648 52 -158
97 -463 97 -655 0 -141 -74 -372 -191 -595 -35 -66 -83 -151 -107 -190 -62
-96 -216 -296 -246 -317 l-24 -17 -6 62 c-11 108 -27 326 -37 507 -10 185 -17
278 -44 585 -15 161 -16 262 -11 660 5 364 10 490 22 558 9 48 19 87 23 87 3
0 31 -17 61 -37z m131 -4900 c49 -19 120 -97 142 -155 23 -60 84 -400 98 -539
6 -63 14 -370 19 -684 8 -603 14 -693 65 -972 55 -304 129 -548 245 -813 85
-194 150 -356 150 -375 0 -8 11 -47 25 -87 14 -40 32 -109 40 -153 19 -94 34
-376 35 -632 0 -178 -1 -183 -31 -270 -38 -108 -109 -251 -156 -316 -32 -44
-175 -160 -270 -220 -60 -38 -118 -54 -259 -73 -215 -28 -758 -8 -1144 42
-252 33 -405 79 -555 167 -27 16 -90 45 -140 64 -111 42 -130 54 -297 193
-175 147 -237 234 -303 425 -44 130 -44 130 -45 272 0 265 32 433 155 798 40
121 90 281 110 355 92 336 294 813 490 1155 50 88 125 223 165 300 40 77 90
169 110 205 21 36 81 148 135 250 111 208 167 298 304 485 223 303 358 461
431 503 25 14 55 34 68 43 26 20 88 35 202 48 89 11 157 6 211 -16z m-2542
-4730 c67 -130 220 -320 318 -395 155 -120 518 -332 672 -394 241 -98 684
-179 1009 -186 l123 -3 54 -42 c103 -81 134 -169 142 -403 5 -136 3 -165 -15
-238 -51 -200 -174 -397 -297 -474 -42 -26 -182 -63 -275 -72 -93 -10 -401 9
-435 26 -17 8 -102 34 -190 57 -268 71 -394 111 -540 170 -77 31 -165 65 -196
75 -111 36 -169 75 -257 176 -232 264 -307 537 -273 997 10 135 22 206 76 448
8 33 21 117 31 188 10 70 19 127 21 127 1 0 16 -26 32 -57z"/>
<path d="M8303 10285 c-167 -52 -272 -209 -261 -389 9 -139 88 -254 216 -314
49 -23 70 -27 147 -27 76 0 99 4 145 26 109 51 163 119 200 250 38 137 20 243
-55 335 -90 109 -260 161 -392 119z"/>
<path d="M15760 26158 c-344 -23 -582 -88 -780 -213 -25 -16 -100 -55 -168
-87 -68 -32 -162 -85 -210 -119 -48 -33 -148 -96 -222 -140 -157 -94 -280
-190 -412 -326 -52 -54 -123 -122 -156 -151 -34 -29 -93 -99 -134 -157 -40
-57 -94 -135 -121 -172 -26 -37 -74 -99 -107 -137 -42 -48 -78 -107 -121 -195
-119 -243 -139 -319 -230 -861 -19 -113 -19 -282 -19 -9440 0 -8436 2 -9332
16 -9400 8 -41 24 -124 35 -185 11 -60 28 -137 39 -170 23 -73 108 -266 148
-338 16 -29 44 -86 61 -127 18 -41 49 -102 70 -135 21 -33 55 -89 76 -125 21
-36 61 -94 90 -130 28 -36 66 -87 84 -115 33 -49 154 -185 261 -294 229 -231
555 -465 779 -557 69 -28 198 -85 286 -127 243 -114 482 -183 745 -215 439
-55 523 -62 691 -62 251 0 551 48 833 135 82 25 153 45 158 45 27 0 213 79
276 117 41 25 127 72 191 105 64 33 166 97 226 142 61 46 131 97 156 114 73
49 357 387 430 510 17 29 42 66 56 82 28 33 114 188 178 320 50 102 82 196
130 390 109 431 116 482 122 853 l5 297 37 0 c57 0 159 28 230 63 89 43 205
159 248 248 67 137 63 -74 63 2809 0 2304 -2 2623 -15 2679 -49 208 -218 377
-426 426 -95 22 -1912 22 -2006 0 -209 -49 -379 -219 -428 -427 -22 -95 -22
-5261 0 -5356 49 -207 220 -378 427 -427 44 -10 121 -15 257 -15 l194 0 -6
-112 c-18 -374 -169 -712 -436 -979 -216 -215 -456 -345 -761 -410 -149 -32
-429 -33 -576 -1 -310 67 -549 195 -765 411 -214 215 -343 453 -410 760 -20
88 -22 145 -32 711 -5 338 -9 845 -8 1125 0 281 4 3975 9 8210 l7 7700 23 100
c71 309 198 543 411 756 216 215 456 345 761 410 88 19 136 23 290 23 154 0
202 -4 290 -23 305 -65 546 -195 760 -410 216 -216 343 -450 411 -756 21 -94
23 -129 26 -568 l4 -469 602 5 c331 2 647 9 702 15 55 6 215 20 355 32 140 11
278 23 307 26 l52 5 -4 177 c-3 97 -7 314 -10 482 -3 168 -10 363 -15 434 -18
250 -70 563 -122 739 -37 129 -152 423 -240 617 -39 85 -77 170 -85 188 -8 19
-30 48 -48 65 -18 18 -67 85 -109 149 -42 64 -99 145 -128 180 -29 34 -72 87
-95 116 -23 30 -116 131 -207 226 -91 94 -176 185 -190 202 -14 17 -46 42 -72
55 -27 13 -83 48 -127 77 -43 29 -125 76 -180 103 -56 28 -138 73 -182 100
-101 62 -244 120 -404 165 -69 20 -195 58 -279 85 -240 77 -385 110 -626 144
-123 17 -693 19 -936 3z"/>
<path d="M19400 21239 c-506 -44 -727 -52 -1183 -45 l-409 7 6 -28 c11 -48 26
-232 33 -386 l6 -148 91 4 c50 3 491 10 981 17 489 6 890 12 891 13 1 1 4 136
8 300 l7 297 -58 -1 c-32 -1 -200 -14 -373 -30z"/>
<path d="M18875 20090 c-618 -7 -811 -12 -954 -26 l-53 -6 6 -181 c3 -100 9
-246 12 -324 l6 -143 762 0 c467 0 835 4 952 11 l191 12 6 186 c4 102 7 252 7
334 l0 147 -132 -2 c-73 -1 -434 -5 -803 -8z"/>
</g>
</svg>
